<?xml version="1.0" encoding="UTF-8"?>
<svg id="Camada_2" data-name="Camada 2" xmlns="http://www.w3.org/2000/svg" viewBox="0 0 1208.46 181.37">
  <defs>
    <style>
      .cls-1 {
        fill-rule: evenodd;
      }

      .cls-1, .cls-2 {
        fill: #fff;
      }

      .cls-3 {
        fill: #f2f2f2;
        font-family: Axiforma-BoldItalic, Axiforma;
        font-size: 99.15px;
        font-style: italic;
        font-weight: 700;
      }

      .cls-4 {
        letter-spacing: -.03em;
      }
    </style>
  </defs>
  <g id="Camada_1-2" data-name="Camada 1">
    <path class="cls-1" d="M764.68,45.36h-28.92v106.05h-36.44c-22.17,0-36.83-13.88-36.83-34.71V45.36h-28.92v72.5c0,37.41,26.22,62.48,65.56,62.48h65.56V45.36h0ZM610.65,123.26h-99.02c4.23,16.92,18.92,28.15,39.44,28.15h59.58v28.92h-60.35c-41.07,0-68.84-27.57-68.84-67.49V45.36h129.19v28.92h-100.27v20.05h100.27v28.92h0ZM360.9,112.85c0,22.37,16,38.57,40.3,38.57h59.97v28.92h-61.13c-40.68,0-68.07-27.77-68.07-67.49s27.38-67.49,68.07-67.49h61.13v28.92h-59.97c-24.3,0-40.3,16.2-40.3,38.57h0ZM77.27,0C33.48,6.98,0,44.92,0,90.68s33.48,83.7,77.27,90.68v-34.24c-25.14-6.47-43.72-29.29-43.72-56.45s18.58-49.98,43.72-56.45V0h0ZM106.4,181.37c43.8-6.98,77.27-44.92,77.27-90.68S150.2,6.98,106.4,0v34.24c25.14,6.47,43.72,29.29,43.72,56.45s-18.58,49.98-43.72,56.45v34.24h0ZM226.51,180.34v-67.49c0-22.37,16-38.57,40.3-38.57h59.97v-28.92h-61.13c-40.69,0-68.07,27.77-68.07,67.49v67.49h28.92Z"/>
    <rect class="cls-2" x="814.5" y="45.16" width="4.79" height="135.16"/>
    <text class="cls-3" transform="translate(863.03 146.04)"><tspan x="0" y="0">RA</tspan><tspan class="cls-4" x="135.93" y="0">D</tspan><tspan x="209.5" y="0">AR</tspan></text>
  </g>
</svg>