<svg xmlns="http://www.w3.org/2000/svg" viewBox="0 0 24 24" aria-hidden="true">
  <path
    fill="#F4F7FF"
    fill-rule="evenodd"
    d="M12.03 2.45a9.4 9.4 0 0 1 8 14.32 9.36 9.36 0 0 1-8 4.78 9.5 9.5 0 0 1-4.47-1.12l-4.1.98 1.1-3.98a9.36 9.36 0 0 1-1.93-5.64 9.4 9.4 0 0 1 9.4-9.34Zm-3.14 4.9c-.3 0-.6.14-.79.36-.39.43-1.03 1.3-1.03 2.6 0 1.1.64 2.3 1.66 3.46 1.4 1.6 3.31 2.83 5.63 3.15 1.07.15 2.3-.1 3.05-.74.48-.41.8-.96.88-1.55.03-.22-.08-.42-.27-.52l-2.09-1.08a.5.5 0 0 0-.65.16l-.69.92a.5.5 0 0 1-.58.17c-.74-.28-2.27-1.1-3.53-2.96a.5.5 0 0 1 .03-.6l.6-.76a.5.5 0 0 0 .08-.5L9.9 7.7a.5.5 0 0 0-.46-.35h-.55Z"
    clip-rule="evenodd"
  />
</svg>
