<?xml version="1.0" encoding="UTF-8"?>
<svg id="Camada_2" data-name="Camada 2" xmlns="http://www.w3.org/2000/svg" xmlns:xlink="http://www.w3.org/1999/xlink" viewBox="0 0 632.9 151.85">
  <defs>
    <style>
      .cls-1 {
        fill: #fff;
      }
    </style>
  </defs>
  <g id="Camada_1-2" data-name="Camada 1">
    <image width="984" height="939" transform="translate(473.77) scale(.16)" xlink:href="../cabeca fasica.png"/>
    <g>
      <path class="cls-1" d="M14.07,71.31c-4.53,0-8.14-1.57-10.84-4.72-2.67-3.15-3.68-6.99-3.04-11.51.65-4.53,2.74-8.32,6.28-11.39,3.57-3.06,7.61-4.6,12.11-4.6s8.21,1.59,10.88,4.77c2.67,3.18,3.67,7,2.99,11.47-.67,4.5-2.8,8.28-6.37,11.35-3.6,3.09-7.61,4.64-12.02,4.64ZM28.07,55.16c.59-3.43-.06-6.27-1.94-8.52-1.91-2.28-4.53-3.42-7.85-3.42s-6.34,1.15-8.98,3.46c-2.64,2.28-4.22,5.15-4.72,8.6-.56,3.43.11,6.28,2.02,8.56,1.91,2.25,4.5,3.37,7.76,3.37s6.19-1.14,8.86-3.42c2.7-2.36,4.32-5.24,4.85-8.65Z"/>
      <path class="cls-1" d="M70.12,49.04c-.25,2.17-1.11,4.06-2.57,5.69-1.43,1.66-3.42,2.71-5.95,3.16l6.71,12.91h-5.19l-6.24-12.65h-4.26l-1.9,12.65h-4.22l4.64-31.17h10.29c3.18.03,5.53.99,7.04,2.89,1.52,1.9,2.07,4.07,1.64,6.52ZM65.82,48.83c.2-1.55-.11-2.8-.93-3.75-.82-.96-2.07-1.43-3.75-1.43h-6.37l-1.56,10.54h5.06c2.33,0,4.13-.48,5.38-1.43,1.25-.96,1.98-2.26,2.17-3.92Z"/>
      <path class="cls-1" d="M97.49,70.8h-4.6l-1.94-8.1h-11.81l-4.34,8.1h-4.68l17.21-31.17h2.28l7.89,31.17ZM90.11,58.74l-2.7-11.77-6.24,11.77h8.94Z"/>
      <path class="cls-1" d="M113.61,70.8h-11.64l4.64-31.17h10.97c4.58,0,8,1.42,10.25,4.26,2.25,2.84,3.04,6.69,2.36,11.56-.62,4.72-2.4,8.48-5.36,11.26-2.9,2.73-6.64,4.09-11.22,4.09ZM110.23,43.64l-3.46,23.16h6.88c3.4,0,6.16-1.1,8.27-3.29,2.14-2.17,3.46-5,3.96-8.52.51-3.35.03-6.07-1.43-8.18-1.49-2.11-3.82-3.16-7-3.16h-7.21Z"/>
      <path class="cls-1" d="M156.84,70.8h-4.6l-1.94-8.1h-11.81l-4.34,8.1h-4.68l17.21-31.17h2.28l7.89,31.17ZM149.46,58.74l-2.7-11.77-6.24,11.77h8.94Z"/>
      <path class="cls-1" d="M184.93,49.04c-.25,2.17-1.11,4.06-2.57,5.69-1.43,1.66-3.42,2.71-5.95,3.16l6.71,12.91h-5.19l-6.24-12.65h-4.26l-1.9,12.65h-4.22l4.64-31.17h10.29c3.18.03,5.53.99,7.04,2.89,1.52,1.9,2.07,4.07,1.64,6.52ZM180.63,48.83c.2-1.55-.11-2.8-.93-3.75-.82-.96-2.07-1.43-3.75-1.43h-6.37l-1.56,10.54h5.06c2.33,0,4.13-.48,5.38-1.43,1.25-.96,1.98-2.26,2.17-3.92Z"/>
      <path class="cls-1" d="M213.06,71.31c-4.53,0-8.14-1.57-10.84-4.72-2.67-3.15-3.68-6.99-3.04-11.51.65-4.53,2.74-8.32,6.28-11.39,3.57-3.06,7.61-4.6,12.11-4.6s8.21,1.59,10.88,4.77c2.67,3.18,3.67,7,2.99,11.47-.67,4.5-2.8,8.28-6.37,11.35-3.6,3.09-7.61,4.64-12.02,4.64ZM227.07,55.16c.59-3.43-.06-6.27-1.94-8.52-1.91-2.28-4.53-3.42-7.85-3.42s-6.34,1.15-8.98,3.46c-2.64,2.28-4.22,5.15-4.72,8.6-.56,3.43.11,6.28,2.02,8.56,1.91,2.25,4.5,3.37,7.76,3.37s6.19-1.14,8.86-3.42c2.7-2.36,4.32-5.24,4.85-8.65Z"/>
      <path class="cls-1" d="M239.17,70.8h-4.22l4.64-31.17h19.06l-.59,4.09h-14.85l-1.43,9.24h12.95l-.59,4.09h-12.95l-2.02,13.75Z"/>
      <path class="cls-1" d="M259.12,70.8l4.64-31.17h4.22l-4.64,31.17h-4.22Z"/>
      <path class="cls-1" d="M285.36,71.27c-4.53,0-8.14-1.49-10.84-4.47-2.67-3.04-3.7-6.94-3.08-11.73.65-4.81,2.68-8.66,6.12-11.56,3.46-2.95,7.45-4.43,11.98-4.43,2.9,0,5.44.62,7.63,1.86,2.19,1.24,3.89,2.95,5.1,5.15l-3.29,2.4c-2.05-3.57-5.26-5.36-9.62-5.36-3.52,0-6.52,1.11-9.03,3.33-2.56,2.25-4.06,5.12-4.51,8.6-.53,3.57.15,6.48,2.07,8.73,1.94,2.22,4.61,3.33,8.01,3.33,4.27,0,8.04-1.8,11.3-5.4l2.74,2.83c-1.88,2.08-4.1,3.72-6.64,4.91-2.55,1.2-5.2,1.79-7.95,1.79Z"/>
      <path class="cls-1" d="M303.92,70.8l4.64-31.17h4.22l-4.64,31.17h-4.22Z"/>
      <path class="cls-1" d="M339.94,70.8h-4.6l-1.94-8.1h-11.81l-4.34,8.1h-4.68l17.21-31.17h2.28l7.89,31.17ZM332.55,58.74l-2.7-11.77-6.24,11.77h8.94Z"/>
      <path class="cls-1" d="M365.37,70.8h-20.96l4.64-31.17h4.22l-4.05,27.08h16.74l-.59,4.09Z"/>
      <path class="cls-1" d="M390.55,70.8h-11.64l4.64-31.17h10.97c4.58,0,8,1.42,10.25,4.26,2.25,2.84,3.04,6.69,2.36,11.56-.62,4.72-2.4,8.48-5.36,11.26-2.9,2.73-6.64,4.09-11.22,4.09ZM387.18,43.64l-3.46,23.16h6.88c3.4,0,6.16-1.1,8.27-3.29,2.14-2.17,3.46-5,3.96-8.52.51-3.35.03-6.07-1.43-8.18-1.49-2.11-3.82-3.16-7-3.16h-7.21Z"/>
      <path class="cls-1" d="M433.78,70.8h-4.6l-1.94-8.1h-11.81l-4.34,8.1h-4.68l17.21-31.17h2.28l7.89,31.17ZM426.4,58.74l-2.7-11.77-6.24,11.77h8.94Z"/>
    </g>
    <g>
      <path class="cls-1" d="M28.7,130.08c-4.53,0-8.14-1.49-10.84-4.47-2.67-3.04-3.7-6.94-3.08-11.73.65-4.81,2.68-8.66,6.12-11.56,3.46-2.95,7.45-4.43,11.98-4.43,2.9,0,5.44.62,7.63,1.86,2.19,1.24,3.89,2.95,5.1,5.15l-3.29,2.4c-2.05-3.57-5.26-5.36-9.62-5.36-3.52,0-6.52,1.11-9.03,3.33-2.56,2.25-4.06,5.12-4.51,8.6-.53,3.57.15,6.48,2.07,8.73,1.94,2.22,4.61,3.33,8.01,3.33,4.27,0,8.04-1.8,11.3-5.4l2.74,2.83c-1.88,2.08-4.1,3.72-6.64,4.91-2.55,1.2-5.2,1.79-7.95,1.79Z"/>
      <path class="cls-1" d="M61.1,130.13c-4.53,0-8.14-1.57-10.84-4.72-2.67-3.15-3.68-6.99-3.04-11.51.65-4.53,2.74-8.32,6.28-11.39,3.57-3.06,7.61-4.6,12.11-4.6s8.21,1.59,10.88,4.77c2.67,3.18,3.67,7,2.99,11.47-.67,4.5-2.8,8.28-6.37,11.35-3.6,3.09-7.61,4.64-12.02,4.64ZM75.1,113.97c.59-3.43-.06-6.27-1.94-8.52-1.91-2.28-4.53-3.42-7.85-3.42s-6.34,1.15-8.98,3.46c-2.64,2.28-4.22,5.15-4.72,8.6-.56,3.43.11,6.28,2.02,8.56,1.91,2.25,4.5,3.37,7.76,3.37s6.19-1.14,8.86-3.42c2.7-2.36,4.32-5.24,4.85-8.65Z"/>
      <path class="cls-1" d="M105.13,120.68l3.37-22.23h4.18l-4.64,31.17h-2.15l-15.35-22.1-3.37,22.1h-4.18l4.64-31.17h1.86l15.65,22.23Z"/>
      <path class="cls-1" d="M123.98,130.13c-2.33,0-4.39-.56-6.16-1.69-1.77-1.12-3.04-2.74-3.8-4.85l3.5-2.4c1.27,3.26,3.49,4.89,6.66,4.89,1.74,0,3.21-.46,4.39-1.39s1.86-2.05,2.02-3.37c.25-1.6-.58-3.04-2.49-4.3-.56-.34-1.57-.89-3.04-1.65-1.74-.96-2.81-1.56-3.21-1.81-2.84-1.94-4.04-4.48-3.59-7.63.34-2.36,1.45-4.27,3.33-5.74,1.88-1.52,4.23-2.28,7.04-2.28,3.82,0,6.71,1.55,8.65,4.64l-3.21,2.62c-1.43-2.19-3.35-3.29-5.74-3.29-1.43,0-2.68.39-3.73,1.18-1.05.79-1.67,1.81-1.83,3.08-.2,1.63.46,2.97,1.98,4.01.37.25,1.48.87,3.33,1.86,1.91,1.04,3.14,1.73,3.67,2.07,2.73,1.8,3.85,4.34,3.37,7.63-.39,2.59-1.63,4.64-3.71,6.16-2.11,1.52-4.6,2.28-7.47,2.28Z"/>
      <path class="cls-1" d="M145.2,129.62l4.05-27.08h-9.24l.59-4.09h22.69l-.59,4.09h-9.24l-4.05,27.08h-4.22Z"/>
      <path class="cls-1" d="M186.79,107.85c-.25,2.17-1.11,4.06-2.57,5.69-1.43,1.66-3.42,2.71-5.95,3.16l6.71,12.91h-5.19l-6.24-12.65h-4.26l-1.9,12.65h-4.22l4.64-31.17h10.29c3.18.03,5.53.99,7.04,2.89,1.52,1.9,2.07,4.07,1.64,6.52ZM182.49,107.64c.2-1.55-.11-2.8-.93-3.75-.82-.96-2.07-1.43-3.75-1.43h-6.37l-1.56,10.54h5.06c2.33,0,4.13-.48,5.38-1.43,1.25-.96,1.98-2.26,2.17-3.92Z"/>
      <path class="cls-1" d="M201.25,130.17c-3.49,0-6.13-1.05-7.93-3.16-1.8-2.08-2.4-5-1.81-8.77l2.99-19.78h4.22l-2.95,19.4c-.82,5.46,1.07,8.18,5.65,8.18,2.33,0,4.25-.7,5.74-2.11,1.49-1.41,2.4-3.33,2.74-5.78l2.95-19.7h4.26l-3.04,20.2c-.56,3.71-2,6.55-4.3,8.52-2.33,2-5.17,2.99-8.52,2.99Z"/>
      <path class="cls-1" d="M234.7,125.95c4.27,0,8.04-1.8,11.3-5.4l2.74,2.83c-1.74,1.97-3.82,3.54-6.22,4.72s-4.9,1.83-7.49,1.94l-.89,1.6h.29c1.24,0,2.23.37,2.97,1.12.74.74,1.03,1.74.86,2.97-.17,1.29-.82,2.36-1.96,3.21-1.14.84-2.57,1.27-4.28,1.27-1.55,0-3.05-.44-4.51-1.31l1.18-2.57c1.15.59,2.29.89,3.42.89.76,0,1.4-.18,1.92-.55.52-.37.81-.82.86-1.35.08-.45-.03-.81-.34-1.08-.31-.27-.84-.4-1.6-.4h-2.36l-.25-.93,1.65-2.95c-3.96-.51-7.06-2.21-9.28-5.1-2.22-2.87-3.05-6.52-2.49-10.97.65-4.81,2.68-8.66,6.12-11.56,3.46-2.95,7.45-4.43,11.98-4.43,2.9,0,5.44.62,7.63,1.86,2.19,1.24,3.89,2.95,5.1,5.15l-3.29,2.4c-2.05-3.57-5.26-5.36-9.62-5.36-3.52,0-6.52,1.11-9.03,3.33-2.56,2.25-4.06,5.12-4.51,8.6-.53,3.57.15,6.48,2.07,8.73,1.94,2.22,4.61,3.33,8.01,3.33Z"/>
      <path class="cls-1" d="M276.16,129.62h-4.6l-1.94-8.1h-11.81l-4.34,8.1h-4.68l17.21-31.17h2.28l7.89,31.17ZM264.9,93.89c-1.15,0-2.15.7-2.99,2.11l-2.57-1.48c.56-1.24,1.32-2.2,2.28-2.89.96-.69,2-1.03,3.12-1.03.96,0,2,.31,3.12.93,1.12.62,1.94.93,2.45.93,1.15,0,2.12-.67,2.91-2.02l2.49,1.43c-.56,1.27-1.31,2.24-2.26,2.91-.94.67-1.96,1.01-3.06,1.01-.96,0-2-.31-3.12-.93-1.12-.65-1.91-.97-2.36-.97ZM268.78,117.56l-2.7-11.77-6.24,11.77h8.94Z"/>
      <path class="cls-1" d="M293.75,130.13c-4.53,0-8.14-1.57-10.84-4.72-2.67-3.15-3.68-6.99-3.04-11.51.65-4.53,2.74-8.32,6.28-11.39,3.57-3.06,7.61-4.6,12.11-4.6s8.21,1.59,10.88,4.77c2.67,3.18,3.67,7,2.99,11.47-.67,4.5-2.8,8.28-6.37,11.35-3.6,3.09-7.61,4.64-12.02,4.64ZM307.76,113.97c.59-3.43-.06-6.27-1.94-8.52-1.91-2.28-4.53-3.42-7.85-3.42s-6.34,1.15-8.98,3.46c-2.64,2.28-4.22,5.15-4.72,8.6-.56,3.43.11,6.28,2.02,8.56,1.91,2.25,4.5,3.37,7.76,3.37s6.19-1.14,8.86-3.42c2.7-2.36,4.32-5.24,4.85-8.65Z"/>
      <path class="cls-1" d="M340.36,130.08c-4.53,0-8.14-1.49-10.84-4.47-2.67-3.04-3.7-6.94-3.08-11.73.65-4.81,2.68-8.66,6.12-11.56,3.46-2.95,7.45-4.43,11.98-4.43,2.9,0,5.44.62,7.63,1.86,2.19,1.24,3.89,2.95,5.1,5.15l-3.29,2.4c-2.05-3.57-5.26-5.36-9.62-5.36-3.52,0-6.52,1.11-9.03,3.33-2.56,2.25-4.06,5.12-4.51,8.6-.53,3.57.15,6.48,2.07,8.73,1.94,2.22,4.61,3.33,8.01,3.33,4.27,0,8.04-1.8,11.3-5.4l2.74,2.83c-1.88,2.08-4.1,3.72-6.64,4.91-2.55,1.2-5.2,1.79-7.95,1.79Z"/>
      <path class="cls-1" d="M358.92,129.62l4.64-31.17h4.22l-4.64,31.17h-4.22Z"/>
      <path class="cls-1" d="M383.09,122.36l13.46-23.92h4.6l-17.88,31.17h-2.4l-8.82-31.17h4.81l6.24,23.92Z"/>
      <path class="cls-1" d="M400.84,129.62l4.64-31.17h4.22l-4.64,31.17h-4.22Z"/>
      <path class="cls-1" d="M433.87,129.62h-20.96l4.64-31.17h4.22l-4.05,27.08h16.74l-.59,4.09Z"/>
    </g>
  </g>
</svg>