<?xml version="1.0" encoding="UTF-8"?>
<svg id="Camada_2" data-name="Camada 2" xmlns="http://www.w3.org/2000/svg" viewBox="0 0 599.56 109.78">
  <defs>
    <style>
      .cls-1 {
        fill: #e6e5d8;
        stroke-width: 0px;
      }
    </style>
  </defs>
  <g id="Camada_1-2" data-name="Camada 1">
    <path class="cls-1" d="M15.32,103.97l34.26-41.76c2.28-2.78,3.53-6.27,3.53-9.87V1.73h-12.13L3.53,47.38c-2.28,2.78-3.53,6.27-3.53,9.87v46.72h15.32Z"/>
    <path class="cls-1" d="M68.44,103.97l34.26-41.76c2.28-2.78,3.53-6.27,3.53-9.87V1.73h-12.13l-37.46,45.66c-2.28,2.78-3.53,6.27-3.53,9.87v46.72h15.32Z"/>
    <path class="cls-1" d="M121.56,103.97l34.26-41.76c2.28-2.78,3.53-6.27,3.53-9.87V1.73h-12.13l-37.46,45.66c-2.28,2.78-3.53,6.27-3.53,9.87v46.72h15.32Z"/>
    <rect class="cls-1" x="318.91" width="14.5" height="72.52"/>
    <path class="cls-1" d="M572.72,72.52c-4.87,0-9.12-2.8-11.09-6.84l-24.76-49.52-24.76,49.52c-1.97,3.94-6.22,6.73-11.08,6.73-5.8,0-10.78-4.04-12.02-9.43L474.2,0h14.92l12.74,53.98,23.31-46.72C527.35,2.9,531.8,0,536.88,0s9.53,3,11.71,7.25l23.41,46.72L584.74,0h14.82l-14.82,63.09c-1.35,5.39-6.22,9.43-12.02,9.43"/>
    <path class="cls-1" d="M454.46,50.6c.7-.7,1.09-1.65,1.09-2.64v-26.21C455.55,9.74,445.92,0,433.8,0h-57.91c-12.02,0-21.76,9.74-21.76,21.76v29.01c0,11.91,9.74,21.76,21.76,21.76h55.11c.99,0,1.94-.39,2.64-1.09l20.82-20.82ZM368.63,50.76v-29.01c0-3.94,3.21-7.25,7.25-7.25h57.91c4.14,0,7.36,3.32,7.36,7.25v29.01c0,3.94-3.21,7.15-7.36,7.15h-57.91c-4.04,0-7.25-3.21-7.25-7.15"/>
    <path class="cls-1" d="M298.19,29.01v-7.25C298.19,9.74,288.45,0,276.43,0h-58.92c-.99,0-1.94.39-2.64,1.09l-17.01,17.02c-.7.7-1.09,1.65-1.09,2.64v51.77h14.5v-21.76h54.7l14.5,21.76h17.4l-15.13-22.79c9.01-2.59,15.44-10.88,15.44-20.72M283.79,29.01c0,4.04-3.32,7.25-7.25,7.25h-65.27v-15.76c0-3.31,2.68-6,6-6h59.27c3.99,0,7.25,3.26,7.25,7.25v7.25Z"/>
    <path class="cls-1" d="M197.87,100.38v-2.22c0-3.54,1.85-5.53,5.11-5.53s4.81,1.83,5.04,4.66h-1.68c-.2-1.8-1.07-3.09-3.35-3.09-2.5,0-3.44,1.54-3.44,3.96v2.22c0,2.43.94,3.96,3.44,3.96,2.22,0,3.15-1.22,3.31-2.94h1.68c-.24,2.76-1.94,4.52-5,4.52-3.26,0-5.11-2-5.11-5.54"/>
    <path class="cls-1" d="M223.57,100.38v-2.22c0-3.53,1.85-5.53,5.11-5.53s5.11,2,5.11,5.53v2.22c0,3.53-1.85,5.53-5.11,5.53s-5.11-2-5.11-5.53M228.68,104.34c2.5,0,3.44-1.54,3.44-3.96v-2.22c0-2.42-.94-3.96-3.44-3.96s-3.44,1.54-3.44,3.96v2.22c0,2.42.94,3.96,3.44,3.96"/>
    <polygon class="cls-1" points="250.08 92.79 253.21 92.79 258.22 105.38 258.22 92.79 259.85 92.79 259.85 105.75 256.62 105.75 251.71 93.25 251.71 105.75 250.08 105.75 250.08 92.79"/>
    <path class="cls-1" d="M275.96,101.86h1.65c.09,1.57,1.04,2.56,3.07,2.56,1.89,0,2.98-.74,2.98-2.22,0-1.26-.72-1.81-2.13-2.11l-1.89-.41c-2.06-.44-3.24-1.52-3.24-3.5,0-2.09,1.61-3.55,4.3-3.55s4.41,1.55,4.42,3.85h-1.65c-.07-1.41-1-2.33-2.81-2.33-1.54,0-2.59.67-2.59,2.04,0,1.05.65,1.61,2.02,1.93l1.76.41c2.22.52,3.5,1.56,3.5,3.68,0,2.31-1.85,3.72-4.67,3.72-3.15,0-4.65-1.61-4.72-4.05"/>
    <polygon class="cls-1" points="304.16 94.33 300.34 94.33 300.34 92.79 309.64 92.79 309.64 94.33 305.82 94.33 305.82 105.75 304.16 105.75 304.16 94.33"/>
    <path class="cls-1" d="M325.47,92.79h4.94c2.41,0,3.92,1.28,3.92,3.48,0,2.44-1.52,3.57-3.92,3.57h-2.8l7.4,5.9h-2.65l-5.28-4.31v4.31h-1.63v-12.96ZM330.32,98.33c1.39,0,2.33-.48,2.33-2.04s-.94-2.02-2.33-2.02h-3.22v4.05h3.22Z"/>
    <path class="cls-1" d="M350.66,101.18v-8.39h1.67v8.35c0,1.93.85,3.24,3.07,3.24s3.11-1.31,3.11-3.24v-8.35h1.67v8.39c0,2.98-1.68,4.74-4.78,4.74s-4.74-1.76-4.74-4.74"/>
    <path class="cls-1" d="M380.13,108.77h1.17c.26,0,.43-.18.43-.44,0-.24-.17-.43-.43-.43h-1.17v-1.02l.65-.98c-2.87-.24-4.5-2.2-4.5-5.52v-2.22c0-3.54,1.85-5.54,5.11-5.54s4.81,1.83,5.04,4.66h-1.68c-.2-1.8-1.07-3.09-3.35-3.09-2.5,0-3.44,1.54-3.44,3.96v2.22c0,2.43.95,3.96,3.44,3.96,2.22,0,3.15-1.22,3.31-2.94h1.68c-.22,2.55-1.68,4.24-4.33,4.48l-.76,1h.15c.94,0,1.54.59,1.54,1.44s-.59,1.46-1.54,1.46h-1.31v-1.02Z"/>
    <path class="cls-1" d="M409.29,102.4h-5.44l-1,3.35h-1.8l4.04-12.96h3l4,12.96h-1.8l-1-3.35ZM403.77,90.35c0-1.06.72-1.48,1.39-1.48.39,0,.76.15,1.26.39l1.76.85v-1.13h1.26v.87c0,1.05-.63,1.48-1.39,1.48-.39,0-.78-.17-1.26-.39l-1.76-.83v1.11h-1.26v-.87ZM408.85,100.92l-2.28-7.66-2.28,7.66h4.55Z"/>
    <path class="cls-1" d="M426.71,100.38v-2.22c0-3.53,1.85-5.53,5.11-5.53s5.11,2,5.11,5.53v2.22c0,3.53-1.85,5.53-5.11,5.53s-5.11-2-5.11-5.53M431.82,104.34c2.5,0,3.44-1.54,3.44-3.96v-2.22c0-2.42-.94-3.96-3.44-3.96s-3.44,1.54-3.44,3.96v2.22c0,2.42.94,3.96,3.44,3.96"/>
  </g>
</svg>